<?xml version="1.0" encoding="utf-8"?>
<!-- Generator: Adobe Illustrator 24.0.1, SVG Export Plug-In . SVG Version: 6.00 Build 0)  -->
<svg version="1.1" id="Layer_1" xmlns="http://www.w3.org/2000/svg" xmlns:xlink="http://www.w3.org/1999/xlink" x="0px" y="0px"
	 viewBox="0 0 284 72" style="enable-background:new 0 0 284 72;" xml:space="preserve">
<style type="text/css">
	.st0{fill:#FFFFFF;}
	.st1{fill:#186749;}
	.st2{fill:#0D0D0D;}
	.st3{fill:#EE273F;}
</style>
<g>
	<path class="st0" d="M107.5,34.6c0,5.2-4.1,8.1-10.8,8.1c-3.5,0-9.3-0.2-12.9-0.3V13.9c3.5-0.1,8.7-0.3,12.3-0.3
		c6.4,0,10.2,2.8,10.2,7.6c0,3.2-1.9,5.9-4.9,6.8C105.2,28.8,107.5,31.4,107.5,34.6z M90.9,19.4v6.3h5c2.4,0,4-1.3,4-3.3
		c0-2.1-1.5-3-4.5-3H90.9z M100.6,33.6c0-1.8-1.6-2.9-4.1-2.9h-5.7v6.1c1.9,0,3.8,0.1,5,0.1C98.9,36.9,100.6,35.8,100.6,33.6"/>
	<path class="st0" d="M130.9,30.6c0,1.6-0.1,2.3-0.4,3.9H117c0.7,1.9,2.5,3.1,5,3.1c1.9,0,3.9-0.3,7.3-1l0.9,4.9
		c-2.8,0.9-5.6,1.6-8.3,1.6c-7.5,0-11.7-4.6-11.7-10.8c0-6.5,4.5-10.8,10.6-10.8C126.7,21.4,130.8,25.1,130.9,30.6L130.9,30.6z
		 M116.7,30.3h8.3c-0.1-2.3-1.7-3.7-4-3.7C118.7,26.6,117.2,28,116.7,30.3"/>
	<path class="st0" d="M141.6,42.4h-6.8V12.6h6.8V42.4z"/>
	<path class="st0" d="M153.6,42.4h-6.8V12.6h6.8V42.4z"/>
	<path class="st0" d="M157.9,15.6c0-2.4,1.8-4.1,4.1-4.1c2.2,0,4.1,1.7,4.1,4.1c0,2.3-1.9,4-4.1,4C159.7,19.6,157.9,17.9,157.9,15.6
		z M165.4,42.4h-6.7V22.1h6.7V42.4z"/>
	<path class="st0" d="M170.3,36.1c3.5,1.3,6.3,1.8,8,1.8c1.7,0,2.8-0.4,2.8-1.3c0-1.3-2.3-1.4-4.6-1.9c-4.7-1-7-2.5-7-6.2
		c0-4.4,3.4-7,9-7c2.9,0,6.5,0.7,8.7,1.5l-1.3,5c-3-0.9-5.7-1.4-7.4-1.4c-1.5,0-2.4,0.5-2.4,1.4c0,1.3,1.8,1.3,4.5,1.9
		c4.3,0.9,7,2.3,7,6.2c0,4.6-3.6,6.9-9.2,6.9c-2.6,0-6-0.5-9.5-1.8L170.3,36.1"/>
	<path class="st0" d="M191.1,36.1c3.5,1.3,6.3,1.8,8,1.8c1.7,0,2.8-0.4,2.8-1.3c0-1.3-2.3-1.4-4.6-1.9c-4.7-1-7-2.5-7-6.2
		c0-4.4,3.4-7,9-7c2.9,0,6.5,0.7,8.7,1.5l-1.3,5c-3-0.9-5.7-1.4-7.4-1.4c-1.5,0-2.4,0.5-2.4,1.4c0,1.3,1.8,1.3,4.5,1.9
		c4.3,0.9,7,2.3,7,6.2c0,4.6-3.6,6.9-9.2,6.9c-2.6,0-6-0.5-9.5-1.8L191.1,36.1z"/>
	<path class="st0" d="M211.1,15.6c0-2.4,1.8-4.1,4.1-4.1c2.2,0,4.1,1.7,4.1,4.1c0,2.3-1.9,4-4.1,4C212.9,19.6,211.1,17.9,211.1,15.6
		z M218.6,42.4h-6.7V22.1h6.7V42.4z"/>
	<path class="st0" d="M257.5,29.3v13.1h-6.8V31.3c0-2.8-1.3-3.7-3.6-3.7c-1,0-2.1,0.1-3.4,0.3c0.1,0.7,0.1,1.3,0.1,2.2v12.2h-6.8
		V31.3c0-2.8-1.3-3.7-3.5-3.7c-1,0-2,0-3.3,0.2v14.6h-6.7V22.5c3.9-0.6,8.3-1.1,11.9-1.1c1.8,0,3.5,0.3,4.8,1c3-0.6,6.1-1,8.7-1
		C254,21.4,257.5,23.8,257.5,29.3"/>
	<path class="st0" d="M284,32.1c0,6.6-4.7,11-11.5,11c-6.7,0-11.5-4.4-11.5-11c0-6.5,4.7-10.9,11.5-10.9
		C279.3,21.3,284,25.6,284,32.1z M277.5,32.1c0-3-2.1-5-5-5c-2.9,0-5,2-5,5c0,3.1,2.1,5.2,5,5.2C275.5,37.3,277.5,35.2,277.5,32.1z"
		/>
	<path class="st0" d="M88.1,53.2c-1.5,0-2.7,0.1-4.2,0.1v10.4h3.1v-2.5h1.2c2.9,0,4.6-1.5,4.6-4C92.7,54.6,91,53.2,88.1,53.2z
		 M86.9,58.6v-2.8c0.4,0,0.8,0,1.2,0c0.9,0,1.5,0.5,1.5,1.4c0,0.9-0.6,1.4-1.5,1.4H86.9z M106.3,53.3h-3v10.4h3V53.3z M126.2,55.3
		v-2h-8.7V56h4.4l-4.7,5.7v2h9.1V61h-4.7L126.2,55.3z M146,55.3v-2h-8.7V56h4.4l-4.7,5.7v2h9.1V61h-4.7L146,55.3z M160.2,62.3h4.2
		l0.5,1.4h3.2l-4.5-10.4h-2.8l-4.5,10.4h3.2L160.2,62.3z M162.3,56.7l1.2,3.1h-2.3L162.3,56.7z"/>
	<path class="st0" d="M3.7,24.5c0-12,9.7-21.7,21.7-21.7l0,0c12,0,21.7,9.7,21.7,21.7v42.9H3.7V24.5z"/>
	<path class="st0" d="M46.1,24.9c11.7,0,21.2,9.5,21.2,21.2l0,0c0,11.7-9.5,21.2-21.2,21.2H2.8V24.9H46.1z"/>
	<path class="st1" d="M7.8,63.2h33.5V29.4H7.8V63.2z M24.6,59.7c-7.3,0-13.3-6-13.3-13.4c0-7.4,5.9-13.4,13.3-13.4
		c7.3,0,13.3,6,13.3,13.4C37.9,53.7,31.9,59.7,24.6,59.7z"/>
	<path class="st2" d="M24.5,4.7c5,0,9.9,1.8,13.6,5.1c3.7,3.3,6.2,7.8,6.9,12.7l0.4,2.8l2.8,0.4c4.9,0.7,9.4,3.2,12.6,6.9
		c3.3,3.8,5.1,8.7,5.1,13.7c0,11.5-9.3,20.9-20.7,20.9H3.7V25.6C3.7,14.1,13,4.7,24.5,4.7L24.5,4.7z M24.5,1C11,1,0,12,0,25.6V71
		h45.2c13.5,0,24.5-11,24.5-24.6c0-12.4-9.1-22.6-21-24.4C47,10.1,36.8,1,24.5,1"/>
	<path class="st3" d="M33.7,46.3c0,5.1-4.1,9.2-9.2,9.2c-5.1,0-9.2-4.1-9.2-9.2c0-5.1,4.1-9.2,9.2-9.2
		C29.6,37.1,33.7,41.2,33.7,46.3"/>
	<path class="st3" d="M45.4,29.4c9.3,0,16.8,7.6,16.8,16.9c0,9.3-7.5,16.9-16.8,16.9V29.4z"/>
	<path class="st3" d="M7.8,25.2c0-9.3,7.5-16.9,16.8-16.9c9.3,0,16.8,7.6,16.8,16.9H7.8"/>
</g>
</svg>
