<svg width="20" height="20" viewBox="0 0 20 20" fill="none" xmlns="http://www.w3.org/2000/svg">
<path d="M17.3087 16.2751C17.3087 16.5751 17.242 16.8834 17.1003 17.1834C16.9587 17.4834 16.7753 17.7667 16.5337 18.0334C16.1253 18.4834 15.6753 18.8084 15.167 19.0168C14.667 19.2251 14.1253 19.3334 13.542 19.3334C12.692 19.3334 11.7837 19.1334 10.8253 18.7251C9.86699 18.3167 8.90866 17.7667 7.95866 17.0751C7.00033 16.3751 6.09199 15.6001 5.22533 14.7417C4.36699 13.8751 3.59199 12.9667 2.90033 12.0167C2.21699 11.0667 1.66699 10.1167 1.26699 9.17508C0.866992 8.22508 0.666992 7.31675 0.666992 6.45008C0.666992 5.88341 0.766992 5.34175 0.966992 4.84175C1.16699 4.33341 1.48366 3.86675 1.92533 3.45008C2.45866 2.92508 3.04199 2.66675 3.65866 2.66675C3.89199 2.66675 4.12533 2.71675 4.33366 2.81675C4.55033 2.91675 4.74199 3.06675 4.89199 3.28341L6.82533 6.00841C6.97533 6.21675 7.08366 6.40841 7.15866 6.59175C7.23366 6.76675 7.27533 6.94175 7.27533 7.10008C7.27533 7.30008 7.21699 7.50008 7.10033 7.69175C6.99199 7.88341 6.83366 8.08341 6.63366 8.28341L6.00033 8.94175C5.90866 9.03341 5.86699 9.14175 5.86699 9.27508C5.86699 9.34175 5.87533 9.40008 5.89199 9.46675C5.91699 9.53341 5.94199 9.58341 5.95866 9.63341C6.10866 9.90841 6.36699 10.2667 6.73366 10.7001C7.10866 11.1334 7.50866 11.5751 7.94199 12.0167C8.39199 12.4584 8.82533 12.8667 9.26699 13.2417C9.70033 13.6084 10.0587 13.8584 10.342 14.0084C10.3837 14.0251 10.4337 14.0501 10.492 14.0751C10.5587 14.1001 10.6253 14.1084 10.7003 14.1084C10.842 14.1084 10.9503 14.0584 11.042 13.9667L11.6753 13.3417C11.8837 13.1334 12.0837 12.9751 12.2753 12.8751C12.467 12.7584 12.6587 12.7001 12.867 12.7001C13.0253 12.7001 13.192 12.7334 13.3753 12.8084C13.5587 12.8834 13.7503 12.9917 13.9587 13.1334L16.717 15.0917C16.9337 15.2417 17.0837 15.4167 17.1753 15.6251C17.2587 15.8334 17.3087 16.0417 17.3087 16.2751Z" fill="#047857"/>
<path d="M14.4167 8.50016C14.4167 8.00016 14.025 7.2335 13.4417 6.6085C12.9083 6.0335 12.2 5.5835 11.5 5.5835" stroke="#047857" stroke-width="1.7" stroke-linecap="round" stroke-linejoin="round"/>
<path d="M17.3333 8.50008C17.3333 5.27508 14.725 2.66675 11.5 2.66675" stroke="#047857" stroke-width="1.7" stroke-linecap="round" stroke-linejoin="round"/>
</svg>
