<svg width="14" height="14" viewBox="0 0 14 14" fill="none" xmlns="http://www.w3.org/2000/svg">
<path d="M1 9.35714L0.46967 8.82681L0.25 9.04648V9.35714H1ZM9.35714 1L9.88747 0.46967C9.59458 0.176777 9.11971 0.176777 8.82681 0.46967L9.35714 1ZM12.7 4.34286L13.2303 4.87319C13.5232 4.58029 13.5232 4.10542 13.2303 3.81253L12.7 4.34286ZM4.34286 12.7V13.45H4.65352L4.87319 13.2303L4.34286 12.7ZM1 12.7H0.25C0.25 13.1142 0.585786 13.45 1 13.45L1 12.7ZM1.53033 9.88747L9.88747 1.53033L8.82681 0.46967L0.46967 8.82681L1.53033 9.88747ZM8.82681 1.53033L12.1697 4.87319L13.2303 3.81253L9.88747 0.46967L8.82681 1.53033ZM12.1697 3.81253L3.81253 12.1697L4.87319 13.2303L13.2303 4.87319L12.1697 3.81253ZM4.34286 11.95H1V13.45H4.34286V11.95ZM1.75 12.7V9.35714H0.25V12.7H1.75Z" fill="#FFC600"/>
</svg>
