<svg width="16" height="14" viewBox="0 0 16 14" fill="none" xmlns="http://www.w3.org/2000/svg">
<path d="M3.90238 2.61905L3.41667 1H0.5M3.90238 2.61905L5.84524 9.09524H14.75V4.2381C14.75 3.34392 14.0251 2.61905 13.131 2.61905H3.90238ZM13.131 13C12.6839 13 12.3214 12.6376 12.3214 12.1905C12.3214 11.7434 12.6839 11.381 13.131 11.381C13.578 11.381 13.9405 11.7434 13.9405 12.1905C13.9405 12.6376 13.578 13 13.131 13ZM6.65476 12.1905C6.65476 11.7434 7.0172 11.381 7.46429 11.381C7.91137 11.381 8.27381 11.7434 8.27381 12.1905C8.27381 12.6376 7.91137 13 7.46429 13C7.0172 13 6.65476 12.6376 6.65476 12.1905Z" stroke="black" stroke-width="1.7"/>
</svg>
